<svg version="1.1" id="Layer_1" xmlns="http://www.w3.org/2000/svg" xmlns:xlink="http://www.w3.org/1999/xlink" x="0px" y="0px"
	 width="100%" viewBox="0 0 600 187" enable-background="new 0 0 600 187" xml:space="preserve">
<path fill="#FEFEFE" opacity="1.000000" stroke="none" 
	d="
M1.000000,61.000000 
	C1.000000,41.015747 1.000000,21.031490 1.000000,1.000000 
	C166.020889,1.000000 331.041779,1.000000 496.430664,1.344921 
	C495.820496,3.472305 494.394073,5.149460 493.946045,7.056484 
	C492.450897,13.420268 491.306305,19.866411 489.667358,26.206936 
	C483.745117,23.131138 478.259125,19.971882 472.575409,17.221273 
	C470.812500,16.368130 467.757202,15.699786 466.648865,16.605419 
	C465.245575,17.752043 464.556824,20.644865 464.718964,22.692781 
	C465.704132,35.132904 466.992828,47.549545 468.234070,59.968636 
	C468.957245,67.203827 469.780853,74.428978 470.560272,81.667747 
	C474.020233,81.667747 476.998810,81.667747 480.435577,81.752296 
	C484.903656,81.945518 488.913544,82.054199 493.184021,82.387283 
	C496.266632,83.966072 499.088654,85.320450 502.080383,86.969795 
	C503.479156,88.518379 504.708252,89.771988 506.032349,91.375015 
	C509.852448,97.273941 510.407928,103.541847 510.143066,110.358864 
	C509.867096,111.830147 509.710480,112.911209 509.371033,114.264252 
	C506.796997,118.379456 504.405853,122.222672 501.683380,126.176636 
	C497.556335,127.826942 493.878448,129.959564 489.932617,130.743683 
	C485.764954,131.571854 481.341888,131.114670 476.675049,131.228622 
	C476.882324,132.646988 477.208405,134.217453 478.044067,135.439484 
	C486.680481,148.068893 495.355133,160.672806 504.116608,173.215729 
	C507.619781,178.230850 511.364960,183.076965 515.000000,188.000000 
	C343.787659,188.000000 172.575302,188.000000 1.000000,188.000000 
	C1.000000,152.979935 1.000000,117.958626 1.313669,82.658890 
	C5.382506,94.915764 9.975260,99.816284 19.596230,99.809502 
	C24.886602,99.805779 30.175827,98.168388 35.870655,97.198578 
	C37.406578,99.704948 42.002281,100.423462 48.825035,98.392677 
	C48.825035,73.043655 48.825035,47.685753 48.825035,22.167057 
	C44.451412,22.167057 40.408554,22.167057 35.864296,22.167057 
	C35.864296,30.212925 35.864296,37.923717 35.864296,46.221413 
	C33.760845,45.262672 32.314720,44.557316 30.833475,43.935635 
	C17.718071,38.431133 5.821221,44.236263 2.193683,57.871101 
	C1.908243,58.943985 1.403058,59.958408 1.000000,61.000000 
M470.652435,105.059624 
	C470.673737,101.060280 470.828766,97.054916 470.649170,93.064621 
	C470.579285,91.511772 470.159668,89.660423 469.213470,88.508354 
	C454.724884,70.867126 440.186462,53.265614 425.503204,35.786270 
	C421.742249,31.309118 418.513245,32.164902 416.561218,37.906033 
	C414.633423,43.575993 413.076141,49.372192 411.137115,55.037991 
	C408.657410,62.283634 410.100800,68.278496 415.735168,73.608574 
	C426.629791,83.914894 437.285675,94.473305 448.078888,104.887444 
	C449.695099,106.446884 451.519409,107.790581 453.914886,109.791611 
	C451.753357,110.533112 451.008331,110.821823 450.244354,111.045853 
	C436.032379,115.213470 421.789337,119.279884 407.635101,123.634895 
	C405.491272,124.294510 402.361725,126.130112 402.182556,127.705421 
	C401.949768,129.752762 403.796661,132.494598 405.486816,134.209961 
	C409.337708,138.118179 413.717987,141.497925 417.736816,145.249161 
	C422.846100,150.018295 428.308411,150.889587 434.672150,147.819427 
	C445.313995,142.685333 456.030762,137.698196 466.821869,132.886658 
	C470.143158,131.405731 471.576080,129.532227 470.614380,125.093948 
	C470.541138,118.712387 470.467865,112.330826 470.652435,105.059624 
M226.550873,49.152924 
	C220.427002,57.971821 221.089920,67.839348 222.807037,77.558815 
	C224.633850,87.899017 231.769012,93.776634 242.045929,93.556442 
	C246.331085,93.464630 250.579498,91.658287 255.007126,90.592430 
	C255.741638,95.179390 254.129944,99.138557 250.003372,101.409370 
	C243.238678,105.131905 237.168823,102.506302 231.880859,98.497261 
	C229.234756,100.747757 226.722672,102.884270 224.216934,105.015388 
	C224.999725,106.142929 225.270599,106.808662 225.760895,107.198448 
	C234.711945,114.314835 244.813828,114.937500 255.007111,111.169769 
	C264.503296,107.659698 268.598389,99.608017 268.810913,89.910225 
	C269.135712,75.091942 268.910553,60.261406 268.881714,45.436142 
	C268.880219,44.667030 268.531311,43.898586 268.236389,42.687080 
	C263.670990,43.986401 258.323914,40.277805 254.858719,45.854668 
	C244.203735,39.933849 234.749283,40.866154 226.550873,49.152924 
M214.193039,72.499969 
	C214.193039,62.755066 214.193039,53.010162 214.193039,42.673782 
	C209.067001,43.779400 203.988174,40.586601 200.514526,45.821049 
	C200.043869,45.608643 199.583908,45.427464 199.147827,45.200443 
	C184.007202,37.318596 170.342957,43.976364 167.754456,60.686813 
	C167.149719,64.590775 166.990234,68.675621 167.382462,72.601662 
	C168.694519,85.734764 174.168564,92.403564 185.438614,93.283752 
	C190.439774,93.674347 195.626358,91.690750 200.846420,90.763969 
	C201.090591,94.345894 200.113708,98.565941 196.054337,101.040977 
	C189.063004,105.303635 182.718170,102.598160 177.532318,98.673302 
	C174.686935,101.012962 172.147598,103.100983 168.247772,106.307678 
	C173.750366,108.766441 177.842621,111.384247 182.305695,112.451508 
	C200.795074,116.872917 214.087952,106.282860 214.187149,87.476448 
	C214.211716,82.817726 214.192413,78.158783 214.193039,72.499969 
M351.134186,57.293320 
	C351.134186,45.549984 351.134186,33.806652 351.134186,22.122141 
	C346.323059,22.122141 342.390045,22.122141 338.376648,22.122141 
	C338.376648,47.947334 338.376648,73.462746 338.376648,98.943604 
	C342.745972,98.943604 346.674408,98.943604 350.851746,98.943604 
	C352.086304,90.686432 347.984192,80.803741 358.777954,75.856941 
	C362.741943,82.535446 366.647827,89.301453 370.779907,95.926376 
	C371.638580,97.303009 373.255493,98.960251 374.661438,99.100578 
	C378.864899,99.520149 383.137085,99.251373 388.308319,99.251373 
	C381.711639,88.687607 375.768372,78.913887 369.528046,69.333672 
	C367.661560,66.468224 367.556244,64.623077 370.050873,62.047733 
	C375.785583,56.127499 381.171112,49.869026 386.963989,43.453678 
	C377.265686,41.765800 369.225830,42.156330 363.546539,51.259895 
	C360.481750,56.172565 355.882324,60.127846 351.134125,65.459572 
	C351.134125,62.113300 351.134125,60.165058 351.134186,57.293320 
M159.879501,70.527252 
	C159.869263,67.694183 159.980957,64.854507 159.827652,62.029202 
	C159.171951,49.945827 151.835648,42.121422 140.452499,42.237511 
	C135.804398,42.284916 131.173630,44.032463 126.277977,45.060501 
	C123.021408,40.558655 117.885887,43.806477 113.212891,42.866627 
	C113.212891,62.058140 113.212891,80.603615 113.212891,99.095978 
	C117.605850,99.095978 121.615425,99.095978 125.914642,99.095978 
	C125.914642,87.739174 125.884308,76.918594 125.924591,66.098282 
	C125.954788,57.986309 129.610138,53.898548 136.589478,54.026569 
	C142.973541,54.143669 146.170242,58.059410 146.199738,65.936028 
	C146.236557,75.768852 146.119751,85.603683 146.313782,95.432838 
	C146.341339,96.828827 147.605392,99.265282 148.540070,99.389297 
	C152.089005,99.860176 155.737732,99.578987 159.879425,99.578987 
	C159.879425,89.767807 159.879425,80.643272 159.879501,70.527252 
M93.906052,45.421059 
	C78.757500,37.963627 62.987007,43.355103 58.629539,57.706532 
	C55.910717,66.661034 55.956356,75.792290 58.745174,84.747025 
	C61.824589,94.634850 70.116600,100.096497 81.350517,100.016006 
	C92.187950,99.938354 101.080704,94.478432 103.078690,84.505585 
	C104.671196,76.556587 104.362930,68.078697 103.840088,59.903271 
	C103.457237,53.916973 99.818787,49.078323 93.906052,45.421059 
M309.965454,97.579811 
	C311.141876,97.235497 313.175110,96.333099 313.368073,96.629333 
	C317.156708,102.446152 322.191925,97.882935 326.529907,99.157532 
	C326.529907,79.976753 326.529907,61.594231 326.529907,43.337402 
	C322.083649,43.337402 318.029846,43.337402 313.710541,43.337402 
	C313.710541,47.437531 313.720459,51.091465 313.708435,54.745319 
	C313.683807,62.235455 313.948517,69.742363 313.531586,77.210960 
	C313.110260,84.759117 309.239105,88.294212 302.689484,88.076332 
	C296.597168,87.873665 293.247650,83.898750 293.158020,76.469666 
	C293.063599,68.646355 293.136932,60.821014 293.136932,52.996563 
	C293.136932,49.739834 293.136932,46.483105 293.136932,43.294121 
	C288.304932,43.294121 284.253387,43.294121 279.905060,43.294121 
	C279.905060,55.334694 279.827606,66.971565 279.923340,78.607010 
	C280.064667,95.778709 293.150177,104.359100 309.965454,97.579811 
M325.505829,120.264473 
	C320.751282,120.264473 315.996704,120.264473 311.185364,120.264473 
	C311.185364,122.490219 311.185364,123.918724 311.185364,125.950027 
	C316.172852,125.950027 320.911133,125.950027 326.225769,125.950027 
	C326.225769,140.928970 326.225769,155.315292 326.225769,170.070236 
	C328.424042,169.923477 329.990356,169.818909 332.149109,169.674789 
	C332.149109,154.899582 332.149109,140.522675 332.149109,126.681335 
	C337.624878,124.283295 343.514771,128.438629 348.300293,123.303413 
	C356.046722,137.971985 369.656738,150.298676 364.084930,169.734024 
	C366.928192,169.734024 368.493774,169.734024 370.603424,169.734024 
	C370.603424,166.207748 370.886078,162.877899 370.544098,159.613480 
	C369.849579,152.983368 371.803009,147.347672 375.485504,141.869507 
	C379.986633,135.173569 383.901031,128.083221 388.188141,120.965820 
	C384.072388,119.505264 381.730835,120.377663 379.869965,123.789398 
	C376.100647,130.700104 371.975372,137.416641 367.594025,144.901428 
	C363.245270,137.370850 359.306213,130.828156 355.669861,124.121323 
	C354.128845,121.279060 352.271667,120.088593 348.976807,120.189613 
	C341.492218,120.419098 333.995850,120.263809 325.505829,120.264473 
M83.487671,160.035141 
	C87.365662,163.260422 88.080193,170.613953 95.833473,169.824814 
	C95.833473,153.937561 95.865807,138.640778 95.812538,123.344292 
	C95.797768,119.101524 92.920395,120.442253 89.936905,120.625771 
	C89.936905,133.343796 89.936905,145.815399 89.936905,159.566406 
	C80.071396,146.716507 71.023941,135.029678 62.108341,123.243103 
	C60.156517,120.662766 58.197033,119.309563 55.069168,121.049469 
	C55.069168,137.257431 55.069168,153.345627 55.069168,169.562683 
	C56.855186,169.562683 58.358940,169.562683 60.316902,169.562683 
	C60.316902,156.597824 60.316902,144.057175 60.316902,129.969162 
	C68.509552,140.600586 75.780426,150.035812 83.487671,160.035141 
M226.452682,120.288498 
	C222.025116,120.288498 217.597565,120.288498 213.191284,120.288498 
	C213.191284,137.286758 213.191284,153.494553 213.191284,170.049454 
	C215.010437,169.892181 216.408508,169.771317 218.143005,169.621353 
	C218.143005,165.964737 218.143005,162.659485 218.143005,159.354248 
	C218.143005,156.068008 218.143005,152.781784 218.143005,149.617462 
	C230.633316,147.275131 232.141678,147.938431 237.851120,158.066833 
	C239.320816,160.674057 240.927292,163.234924 242.084518,165.979996 
	C243.665527,169.730286 246.105179,170.972504 250.580353,169.305893 
	C246.767624,162.348145 243.001862,155.476120 239.226227,148.586075 
	C247.461853,144.835052 250.736496,139.660522 249.671509,132.567947 
	C248.579941,125.298332 244.270187,121.579773 235.395691,120.520523 
	C232.767365,120.206802 230.084091,120.353340 226.452682,120.288498 
M187.507080,164.864120 
	C183.076172,164.864120 178.645279,164.864120 174.231339,164.864120 
	C174.231339,158.860565 174.231339,153.614243 174.231339,147.770233 
	C182.951599,147.770233 191.349625,147.770233 199.796555,147.770233 
	C199.796555,145.723801 199.796555,144.282547 199.796555,142.198059 
	C191.167038,142.198059 182.772400,142.198059 174.226715,142.198059 
	C174.226715,136.493271 174.226715,131.435623 174.226715,125.857330 
	C184.129486,125.857330 193.709763,125.857330 203.484528,125.857330 
	C203.484528,123.792931 203.484528,122.254730 203.484528,120.626450 
	C191.568634,120.626450 180.011383,120.626450 168.434662,120.626450 
	C168.434662,137.221741 168.434662,153.441269 168.434662,170.032822 
	C174.616928,170.032822 180.423615,170.032822 186.230301,170.032822 
	C191.990753,170.032822 197.751221,170.032822 203.262253,170.032822 
	C204.532043,166.057159 203.509872,164.642883 199.990967,164.821426 
	C196.170303,165.015274 192.332153,164.864456 187.507080,164.864120 
M285.093292,154.975418 
	C285.348236,162.244965 282.786865,164.957092 275.636047,165.376297 
	C268.927063,165.769592 263.297607,163.360062 258.183929,158.651489 
	C256.951355,160.199036 255.971161,161.429733 254.755997,162.955444 
	C262.714294,169.824478 271.310120,172.688248 281.293762,169.957077 
	C287.235504,168.331619 290.793152,163.543243 291.074860,157.514816 
	C291.379120,151.004028 288.393616,146.789627 281.222168,144.246399 
	C276.528046,142.581696 271.430084,141.844864 267.028198,139.656265 
	C264.842590,138.569595 262.417358,135.006805 262.638275,132.820709 
	C262.888794,130.341827 265.556488,127.376228 267.960388,126.061050 
	C270.161407,124.856880 273.542084,124.990196 276.167999,125.580078 
	C279.786224,126.392868 283.183563,128.188965 286.866058,129.638870 
	C287.382141,128.989014 288.035675,128.241180 288.595215,127.428635 
	C288.860443,127.043442 288.946106,126.534576 289.097626,126.123749 
	C283.703644,120.363602 273.819275,118.064484 266.028381,120.700462 
	C260.416321,122.599251 257.140686,126.807198 256.849091,132.492310 
	C256.509766,139.107986 258.650574,142.813095 264.931213,145.301773 
	C268.775940,146.825226 273.009308,147.389587 276.809662,148.996140 
	C279.720673,150.226715 282.227020,152.414490 285.093292,154.975418 
M29.549318,164.681015 
	C15.386865,167.140015 8.884425,161.802307 8.847055,147.659729 
	C8.826799,139.993973 8.690545,132.323837 8.902779,124.663887 
	C9.028677,120.119980 6.955262,119.709312 3.152557,120.842125 
	C3.152557,131.658752 2.617601,142.328461 3.295866,152.920486 
	C4.045341,164.624527 12.693152,171.345779 24.900978,170.917969 
	C36.150124,170.523727 43.756863,162.945816 44.043720,151.379974 
	C44.283287,141.720642 44.103806,132.050629 44.069458,122.385468 
	C44.067318,121.783394 43.712353,121.182571 43.423969,120.273643 
	C41.878304,120.421188 40.481705,120.554497 38.800537,120.714981 
	C38.800537,129.777313 38.958588,138.434387 38.750656,147.082657 
	C38.583538,154.033371 37.861206,160.918121 29.549318,164.681015 
M126.618942,128.831558 
	C126.050598,127.447006 125.322258,126.104599 124.944382,124.669884 
	C123.878845,120.624352 121.490105,119.318848 117.342384,120.810715 
	C117.505508,121.471001 117.579147,122.114548 117.818832,122.688782 
	C124.031868,137.573914 130.214371,152.472351 136.580002,167.292114 
	C137.090683,168.481018 138.977356,169.934464 140.056824,169.809982 
	C141.449951,169.649353 143.286469,168.295166 143.872040,166.982208 
	C147.867554,158.023590 151.590179,148.943130 155.389923,139.897385 
	C158.008865,133.662659 160.610275,127.420578 163.288956,121.015816 
	C159.384262,119.526924 157.066406,120.248634 155.958694,123.987206 
	C155.441391,125.733147 154.630386,127.393059 153.937271,129.085724 
	C149.521210,139.870316 145.100906,150.653137 140.260010,162.466309 
	C135.507324,150.762787 131.200455,140.157089 126.618942,128.831558 
M299.921021,169.625488 
	C301.484161,169.726624 303.047302,169.827759 304.764954,169.938904 
	C304.764954,153.162018 304.764954,136.951752 304.764954,120.720863 
	C301.520996,119.905594 299.193298,119.762428 299.230682,123.969040 
	C299.363739,138.939621 299.380676,153.911240 299.921021,169.625488 
M106.844940,125.690033 
	C106.844940,140.276382 106.844940,154.862732 106.844940,169.543915 
	C108.908623,169.543915 110.414543,169.543915 111.872452,169.543915 
	C111.872452,153.045471 111.872452,136.976074 111.872452,120.884293 
	C107.747200,119.398254 106.425964,120.999138 106.844940,125.690033 
z"/>
<path fill="#FFFEFC" opacity="1.000000" stroke="none" 
	d="
M500.000000,1.000000 
	C533.599304,1.000000 567.198547,1.000000 601.000000,1.000000 
	C601.000000,40.020660 601.000000,79.041672 600.639282,118.392334 
	C598.634216,118.087112 597.019165,117.007027 595.340271,116.896233 
	C588.869080,116.469208 582.378174,116.330490 575.893372,116.123344 
	C554.276001,115.432800 532.658142,114.759140 511.362549,113.805099 
	C520.069641,110.342468 528.455933,107.156906 536.839539,103.964325 
	C552.367004,98.051292 567.917725,92.197441 583.386108,86.133621 
	C585.192261,85.425583 587.547058,83.719635 587.811401,82.164238 
	C588.065491,80.669418 586.318420,78.225159 584.784058,77.144424 
	C579.087830,73.132225 573.116760,69.510315 567.223999,65.471489 
	C567.165894,64.841682 567.132690,64.482208 567.420532,64.013283 
	C572.022278,60.471390 576.281128,57.011211 580.589417,53.613865 
	C585.421631,49.803421 587.035828,44.955650 585.532288,39.008938 
	C583.700378,31.763325 582.094666,24.452444 579.981140,17.290802 
	C579.303589,14.995187 577.611755,11.739359 575.861206,11.364471 
	C574.008850,10.967806 571.069397,13.037950 569.401001,14.789177 
	C548.867615,36.342312 528.488708,58.042645 508.033264,79.670258 
	C506.834778,80.937408 505.321991,81.907257 503.711121,82.667381 
	C509.449341,65.949104 515.364807,49.553905 521.450684,33.222183 
	C523.587952,27.486683 523.057129,22.401861 518.567810,18.134985 
	C512.463928,12.333498 506.196991,6.703535 500.000000,1.000000 
z"/>
<path fill="#FFFEFE" opacity="1.000000" stroke="none" 
	d="
M601.000000,122.000000 
	C601.000000,143.934769 601.000000,165.869553 601.000000,188.000000 
	C573.979431,188.000000 546.958374,188.000000 519.592773,187.685760 
	C522.729797,181.774170 526.430847,176.299026 529.633850,170.546570 
	C533.126892,164.273224 532.507751,160.623489 527.789124,155.147903 
	C522.817383,149.378479 517.811279,143.638580 513.257202,137.871124 
	C532.326721,140.991272 550.976196,144.029373 569.582214,147.313782 
	C576.018616,148.449982 580.941833,146.468872 584.957947,141.543686 
	C590.284119,135.011871 595.650757,128.513016 601.000000,122.000000 
z"/>
<path fill="#FDBF13" opacity="1.000000" stroke="none" 
	d="
M601.000000,121.625000 
	C595.650757,128.513016 590.284119,135.011871 584.957947,141.543686 
	C580.941833,146.468872 576.018616,148.449982 569.582214,147.313782 
	C550.976196,144.029373 532.326721,140.991272 512.989197,137.758881 
	C511.567749,137.373581 510.851379,137.085846 510.094849,136.453995 
	C507.374695,132.761871 504.694702,129.413864 502.014709,126.065880 
	C504.405853,122.222672 506.796997,118.379456 509.623505,114.258163 
	C510.390991,113.964127 510.718231,113.997108 511.040497,114.079010 
	C532.658142,114.759140 554.276001,115.432800 575.893372,116.123344 
	C582.378174,116.330490 588.869080,116.469208 595.340271,116.896233 
	C597.019165,117.007027 598.634216,118.087112 600.639282,118.860992 
	C601.000000,119.750000 601.000000,120.500000 601.000000,121.625000 
z"/>
<path fill="#958B87" opacity="1.000000" stroke="none" 
	d="
M1.000000,61.468533 
	C1.403058,59.958408 1.908243,58.943985 2.193683,57.871101 
	C5.821221,44.236263 17.718071,38.431133 30.833475,43.935635 
	C32.314720,44.557316 33.760845,45.262672 35.864296,46.221413 
	C35.864296,37.923717 35.864296,30.212925 35.864296,22.167057 
	C40.408554,22.167057 44.451412,22.167057 48.825035,22.167057 
	C48.825035,47.685753 48.825035,73.043655 48.825035,98.392677 
	C42.002281,100.423462 37.406578,99.704948 35.870655,97.198578 
	C30.175827,98.168388 24.886602,99.805779 19.596230,99.809502 
	C9.975260,99.816284 5.382506,94.915764 1.313669,82.190231 
	C1.000000,75.312355 1.000000,68.624710 1.000000,61.468533 
M36.002228,74.234924 
	C35.660946,69.947876 35.718071,65.580421 34.873310,61.394993 
	C33.908325,56.613873 30.454042,54.145596 25.507793,54.025211 
	C20.393036,53.900730 16.261190,56.239986 15.649088,61.301243 
	C14.866618,67.771217 14.575814,74.593529 15.789558,80.935501 
	C17.203869,88.325462 26.975336,90.940857 31.885855,85.473824 
	C34.204315,82.892609 34.659893,78.638138 36.002228,74.234924 
z"/>
<path fill="#F15B2C" opacity="1.000000" stroke="none" 
	d="
M499.625000,1.000000 
	C506.196991,6.703535 512.463928,12.333498 518.567810,18.134985 
	C523.057129,22.401861 523.587952,27.486683 521.450684,33.222183 
	C515.364807,49.553905 509.449341,65.949104 503.739563,82.661835 
	C504.012360,83.004356 504.003448,82.946442 503.678986,82.835991 
	C503.263702,83.151833 503.172852,83.578117 503.042480,84.301163 
	C502.638855,85.290215 502.274750,85.982521 501.910645,86.674835 
	C499.088654,85.320450 496.266632,83.966072 493.205017,81.918961 
	C493.325165,73.972672 493.566498,66.710701 494.080231,59.468056 
	C494.534119,53.068447 495.229889,46.683559 495.933868,40.304867 
	C496.534576,34.861866 494.463959,30.200348 490.179382,27.588127 
	C490.114655,26.977268 490.071045,26.629133 490.027405,26.280998 
	C491.306305,19.866411 492.450897,13.420268 493.946045,7.056484 
	C494.394073,5.149460 495.820496,3.472305 496.899353,1.344921 
	C497.750000,1.000000 498.500000,1.000000 499.625000,1.000000 
z"/>
<path fill="#F15B2C" opacity="1.000000" stroke="none" 
	d="
M510.135010,136.798126 
	C510.851379,137.085846 511.567749,137.373581 512.552124,137.773544 
	C517.811279,143.638580 522.817383,149.378479 527.789124,155.147903 
	C532.507751,160.623489 533.126892,164.273224 529.633850,170.546570 
	C526.430847,176.299026 522.729797,181.774170 519.124084,187.685760 
	C517.933289,188.000000 516.866638,188.000000 515.399963,188.000000 
	C511.364960,183.076965 507.619781,178.230850 504.116608,173.215729 
	C495.355133,160.672806 486.680481,148.068893 478.044067,135.439484 
	C477.208405,134.217453 476.882324,132.646988 476.974823,131.468903 
	C479.569366,132.016495 481.506866,132.345566 483.448486,132.648392 
	C492.343353,134.035660 501.239410,135.415558 510.135010,136.798126 
z"/>
<path fill="#F89122" opacity="1.000000" stroke="none" 
	d="
M470.355469,126.000809 
	C471.576080,129.532227 470.143158,131.405731 466.821869,132.886658 
	C456.030762,137.698196 445.313995,142.685333 434.672150,147.819427 
	C428.308411,150.889587 422.846100,150.018295 417.736816,145.249161 
	C413.717987,141.497925 409.337708,138.118179 405.486816,134.209961 
	C403.796661,132.494598 401.949768,129.752762 402.182556,127.705421 
	C402.361725,126.130112 405.491272,124.294510 407.635101,123.634895 
	C421.789337,119.279884 436.032379,115.213470 450.244354,111.045853 
	C451.008331,110.821823 451.753357,110.533112 453.914886,109.791611 
	C451.519409,107.790581 449.695099,106.446884 448.078888,104.887444 
	C437.285675,94.473305 426.629791,83.914894 415.735168,73.608574 
	C410.100800,68.278496 408.657410,62.283634 411.137115,55.037991 
	C413.076141,49.372192 414.633423,43.575993 416.561218,37.906033 
	C418.513245,32.164902 421.742249,31.309118 425.503204,35.786270 
	C440.186462,53.265614 454.724884,70.867126 469.213470,88.508354 
	C470.159668,89.660423 470.579285,91.511772 470.649170,93.064621 
	C470.828766,97.054916 470.673737,101.060280 470.146729,105.516464 
	C464.583618,107.209335 459.526184,108.445366 453.100098,110.015892 
	C459.554260,115.994843 464.954865,120.997826 470.355469,126.000809 
z"/>
<path fill="#FDBF12" opacity="1.000000" stroke="none" 
	d="
M502.080383,86.969803 
	C502.274750,85.982521 502.638855,85.290215 503.326294,84.239037 
	C503.767578,83.568924 503.885529,83.257683 504.003448,82.946442 
	C504.003448,82.946442 504.012360,83.004356 503.983887,83.009903 
	C505.321991,81.907257 506.834778,80.937408 508.033264,79.670258 
	C528.488708,58.042645 548.867615,36.342312 569.401001,14.789177 
	C571.069397,13.037950 574.008850,10.967806 575.861206,11.364471 
	C577.611755,11.739359 579.303589,14.995187 579.981140,17.290802 
	C582.094666,24.452444 583.700378,31.763325 585.532288,39.008938 
	C587.035828,44.955650 585.421631,49.803421 580.589417,53.613865 
	C576.281128,57.011211 572.022278,60.471390 566.998535,63.985031 
	C559.875244,61.809605 554.267212,63.910671 548.822205,67.098701 
	C545.966003,68.770988 543.041321,70.326126 540.150085,71.938774 
	C528.745300,78.300056 517.341492,84.663147 505.937317,91.025589 
	C504.708252,89.771988 503.479156,88.518379 502.080383,86.969803 
z"/>
<path fill="#968C88" opacity="1.000000" stroke="none" 
	d="
M226.782043,48.866714 
	C234.749283,40.866154 244.203735,39.933849 254.858719,45.854668 
	C258.323914,40.277805 263.670990,43.986401 268.236389,42.687080 
	C268.531311,43.898586 268.880219,44.667030 268.881714,45.436142 
	C268.910553,60.261406 269.135712,75.091942 268.810913,89.910225 
	C268.598389,99.608017 264.503296,107.659698 255.007111,111.169769 
	C244.813828,114.937500 234.711945,114.314835 225.760895,107.198448 
	C225.270599,106.808662 224.999725,106.142929 224.216934,105.015388 
	C226.722672,102.884270 229.234756,100.747757 231.880859,98.497261 
	C237.168823,102.506302 243.238678,105.131905 250.003372,101.409370 
	C254.129944,99.138557 255.741638,95.179390 255.007126,90.592430 
	C250.579498,91.658287 246.331085,93.464630 242.045929,93.556442 
	C231.769012,93.776634 224.633850,87.899017 222.807037,77.558815 
	C221.089920,67.839348 220.427002,57.971821 226.782043,48.866714 
M255.048523,72.898438 
	C255.042755,69.426842 255.338364,65.921944 254.959290,62.491596 
	C254.415161,57.567921 251.110641,54.489979 246.620819,54.055336 
	C241.550003,53.564442 237.698441,55.694817 236.301743,60.630207 
	C235.377060,63.897621 235.069199,67.491081 235.269501,70.892403 
	C235.635681,77.111000 238.812424,80.628250 243.925888,81.432114 
	C249.202240,82.261574 252.294327,80.100334 255.048523,72.898438 
z"/>
<path fill="#968C88" opacity="1.000000" stroke="none" 
	d="
M214.193146,72.999954 
	C214.192413,78.158783 214.211716,82.817726 214.187149,87.476448 
	C214.087952,106.282860 200.795074,116.872917 182.305695,112.451508 
	C177.842621,111.384247 173.750366,108.766441 168.247772,106.307678 
	C172.147598,103.100983 174.686935,101.012962 177.532318,98.673302 
	C182.718170,102.598160 189.063004,105.303635 196.054337,101.040977 
	C200.113708,98.565941 201.090591,94.345894 200.846420,90.763969 
	C195.626358,91.690750 190.439774,93.674347 185.438614,93.283752 
	C174.168564,92.403564 168.694519,85.734764 167.382462,72.601662 
	C166.990234,68.675621 167.149719,64.590775 167.754456,60.686813 
	C170.342957,43.976364 184.007202,37.318596 199.147827,45.200443 
	C199.583908,45.427464 200.043869,45.608643 200.514526,45.821049 
	C203.988174,40.586601 209.067001,43.779400 214.193039,42.673782 
	C214.193039,53.010162 214.193039,62.755066 214.193146,72.999954 
M188.056229,81.117790 
	C192.552521,81.628349 196.888077,81.599503 199.146362,76.675926 
	C201.781601,70.930496 201.871338,64.987328 199.375565,59.255634 
	C196.874985,53.512932 188.515152,52.106998 184.161575,56.410618 
	C178.268631,62.235928 180.065414,76.597252 188.056229,81.117790 
z"/>
<path fill="#958B86" opacity="1.000000" stroke="none" 
	d="
M351.134155,57.755070 
	C351.134125,60.165058 351.134125,62.113300 351.134125,65.459572 
	C355.882324,60.127846 360.481750,56.172565 363.546539,51.259895 
	C369.225830,42.156330 377.265686,41.765800 386.963989,43.453678 
	C381.171112,49.869026 375.785583,56.127499 370.050873,62.047733 
	C367.556244,64.623077 367.661560,66.468224 369.528046,69.333672 
	C375.768372,78.913887 381.711639,88.687607 388.308319,99.251373 
	C383.137085,99.251373 378.864899,99.520149 374.661438,99.100578 
	C373.255493,98.960251 371.638580,97.303009 370.779907,95.926376 
	C366.647827,89.301453 362.741943,82.535446 358.777954,75.856941 
	C347.984192,80.803741 352.086304,90.686432 350.851746,98.943604 
	C346.674408,98.943604 342.745972,98.943604 338.376648,98.943604 
	C338.376648,73.462746 338.376648,47.947334 338.376648,22.122141 
	C342.390045,22.122141 346.323059,22.122141 351.134186,22.122141 
	C351.134186,33.806652 351.134186,45.549984 351.134155,57.755070 
z"/>
<path fill="#968D88" opacity="1.000000" stroke="none" 
	d="
M159.879456,71.022995 
	C159.879425,80.643272 159.879425,89.767807 159.879425,99.578987 
	C155.737732,99.578987 152.089005,99.860176 148.540070,99.389297 
	C147.605392,99.265282 146.341339,96.828827 146.313782,95.432838 
	C146.119751,85.603683 146.236557,75.768852 146.199738,65.936028 
	C146.170242,58.059410 142.973541,54.143669 136.589478,54.026569 
	C129.610138,53.898548 125.954788,57.986309 125.924591,66.098282 
	C125.884308,76.918594 125.914642,87.739174 125.914642,99.095978 
	C121.615425,99.095978 117.605850,99.095978 113.212891,99.095978 
	C113.212891,80.603615 113.212891,62.058140 113.212891,42.866627 
	C117.885887,43.806477 123.021408,40.558655 126.277977,45.060501 
	C131.173630,44.032463 135.804398,42.284916 140.452499,42.237511 
	C151.835648,42.121422 159.171951,49.945827 159.827652,62.029202 
	C159.980957,64.854507 159.869263,67.694183 159.879456,71.022995 
z"/>
<path fill="#968C88" opacity="1.000000" stroke="none" 
	d="
M94.219841,45.619347 
	C99.818787,49.078323 103.457237,53.916973 103.840088,59.903271 
	C104.362930,68.078697 104.671196,76.556587 103.078690,84.505585 
	C101.080704,94.478432 92.187950,99.938354 81.350517,100.016006 
	C70.116600,100.096497 61.824589,94.634850 58.745174,84.747025 
	C55.956356,75.792290 55.910717,66.661034 58.629539,57.706532 
	C62.987007,43.355103 78.757500,37.963627 94.219841,45.619347 
M78.966766,87.975212 
	C86.909210,88.143761 90.210632,85.866188 91.113586,78.074944 
	C91.735107,72.712044 91.487450,67.132416 90.771729,61.763844 
	C90.084885,56.611938 85.978409,53.943077 80.675224,54.024147 
	C75.732513,54.099712 71.808533,56.836334 71.204254,61.881870 
	C70.540398,67.424835 70.686493,73.102089 70.915390,78.703033 
	C71.102646,83.285385 73.681725,86.436562 78.966766,87.975212 
z"/>
<path fill="#958C87" opacity="1.000000" stroke="none" 
	d="
M309.613342,97.757416 
	C293.150177,104.359100 280.064667,95.778709 279.923340,78.607010 
	C279.827606,66.971565 279.905060,55.334694 279.905060,43.294121 
	C284.253387,43.294121 288.304932,43.294121 293.136932,43.294121 
	C293.136932,46.483105 293.136932,49.739834 293.136932,52.996563 
	C293.136932,60.821014 293.063599,68.646355 293.158020,76.469666 
	C293.247650,83.898750 296.597168,87.873665 302.689484,88.076332 
	C309.239105,88.294212 313.110260,84.759117 313.531586,77.210960 
	C313.948517,69.742363 313.683807,62.235455 313.708435,54.745319 
	C313.720459,51.091465 313.710541,47.437531 313.710541,43.337402 
	C318.029846,43.337402 322.083649,43.337402 326.529907,43.337402 
	C326.529907,61.594231 326.529907,79.976753 326.529907,99.157532 
	C322.191925,97.882935 317.156708,102.446152 313.368073,96.629333 
	C313.175110,96.333099 311.141876,97.235497 309.613342,97.757416 
z"/>
<path fill="#F15B2C" opacity="1.000000" stroke="none" 
	d="
M511.362549,113.805107 
	C510.718231,113.997108 510.390991,113.964127 509.806335,113.986176 
	C509.710480,112.911209 509.867096,111.830147 510.418274,110.193924 
	C524.517517,98.624245 538.161804,87.533287 551.959290,76.636253 
	C556.864380,72.762321 562.141541,69.359619 567.248901,65.741821 
	C573.116760,69.510315 579.087830,73.132225 584.784058,77.144424 
	C586.318420,78.225159 588.065491,80.669418 587.811401,82.164238 
	C587.547058,83.719635 585.192261,85.425583 583.386108,86.133621 
	C567.917725,92.197441 552.367004,98.051292 536.839539,103.964325 
	C528.455933,107.156906 520.069641,110.342468 511.362549,113.805107 
z"/>
<path fill="#FDBF13" opacity="1.000000" stroke="none" 
	d="
M489.667358,26.206932 
	C490.071045,26.629133 490.114655,26.977268 490.065796,27.991104 
	C486.641357,46.327118 483.309387,63.997433 479.977386,81.667747 
	C476.998810,81.667747 474.020233,81.667747 470.560272,81.667747 
	C469.780853,74.428978 468.957245,67.203827 468.234070,59.968636 
	C466.992828,47.549545 465.704132,35.132904 464.718964,22.692781 
	C464.556824,20.644865 465.245575,17.752043 466.648865,16.605419 
	C467.757202,15.699786 470.812500,16.368130 472.575409,17.221273 
	C478.259125,19.971882 483.745117,23.131138 489.667358,26.206932 
z"/>
<path fill="#9C938E" opacity="1.000000" stroke="none" 
	d="
M326.005066,120.264694 
	C333.995850,120.263809 341.492218,120.419098 348.976807,120.189613 
	C352.271667,120.088593 354.128845,121.279060 355.669861,124.121323 
	C359.306213,130.828156 363.245270,137.370850 367.594025,144.901428 
	C371.975372,137.416641 376.100647,130.700104 379.869965,123.789398 
	C381.730835,120.377663 384.072388,119.505264 388.188141,120.965820 
	C383.901031,128.083221 379.986633,135.173569 375.485504,141.869507 
	C371.803009,147.347672 369.849579,152.983368 370.544098,159.613480 
	C370.886078,162.877899 370.603424,166.207748 370.603424,169.734024 
	C368.493774,169.734024 366.928192,169.734024 364.084930,169.734024 
	C369.656738,150.298676 356.046722,137.971985 348.300293,123.303413 
	C343.514771,128.438629 337.624878,124.283295 332.149109,126.681335 
	C332.149109,140.522675 332.149109,154.899582 332.149109,169.674789 
	C329.990356,169.818909 328.424042,169.923477 326.225769,170.070236 
	C326.225769,155.315292 326.225769,140.928970 326.225769,125.950027 
	C320.911133,125.950027 316.172852,125.950027 311.185364,125.950027 
	C311.185364,123.918724 311.185364,122.490219 311.185364,120.264473 
	C315.996704,120.264473 320.751282,120.264473 326.005066,120.264694 
z"/>
<path fill="#F7901F" opacity="1.000000" stroke="none" 
	d="
M567.223999,65.471481 
	C562.141541,69.359619 556.864380,72.762321 551.959290,76.636253 
	C538.161804,87.533287 524.517517,98.624245 510.537598,109.803696 
	C510.407928,103.541847 509.852448,97.273941 506.032349,91.375008 
	C517.341492,84.663147 528.745300,78.300056 540.150085,71.938774 
	C543.041321,70.326126 545.966003,68.770988 548.822205,67.098701 
	C554.267212,63.910671 559.875244,61.809605 566.677490,64.094482 
	C567.132690,64.482208 567.165894,64.841682 567.223999,65.471481 
z"/>
<path fill="#99908B" opacity="1.000000" stroke="none" 
	d="
M83.269485,159.753098 
	C75.780426,150.035812 68.509552,140.600586 60.316902,129.969162 
	C60.316902,144.057175 60.316902,156.597824 60.316902,169.562683 
	C58.358940,169.562683 56.855186,169.562683 55.069168,169.562683 
	C55.069168,153.345627 55.069168,137.257431 55.069168,121.049469 
	C58.197033,119.309563 60.156517,120.662766 62.108341,123.243103 
	C71.023941,135.029678 80.071396,146.716507 89.936905,159.566406 
	C89.936905,145.815399 89.936905,133.343796 89.936905,120.625771 
	C92.920395,120.442253 95.797768,119.101524 95.812538,123.344292 
	C95.865807,138.640778 95.833473,153.937561 95.833473,169.824814 
	C88.080193,170.613953 87.365662,163.260422 83.269485,159.753098 
z"/>
<path fill="#988F8A" opacity="1.000000" stroke="none" 
	d="
M226.939331,120.288734 
	C230.084091,120.353340 232.767365,120.206802 235.395691,120.520523 
	C244.270187,121.579773 248.579941,125.298332 249.671509,132.567947 
	C250.736496,139.660522 247.461853,144.835052 239.226227,148.586075 
	C243.001862,155.476120 246.767624,162.348145 250.580353,169.305893 
	C246.105179,170.972504 243.665527,169.730286 242.084518,165.979996 
	C240.927292,163.234924 239.320816,160.674057 237.851120,158.066833 
	C232.141678,147.938431 230.633316,147.275131 218.143005,149.617462 
	C218.143005,152.781784 218.143005,156.068008 218.143005,159.354248 
	C218.143005,162.659485 218.143005,165.964737 218.143005,169.621353 
	C216.408508,169.771317 215.010437,169.892181 213.191284,170.049454 
	C213.191284,153.494553 213.191284,137.286758 213.191284,120.288498 
	C217.597565,120.288498 222.025116,120.288498 226.939331,120.288734 
M218.143524,141.042160 
	C218.893173,141.929916 219.644135,143.584930 220.392258,143.583649 
	C226.187653,143.573730 232.022766,143.582458 237.764008,142.899567 
	C241.909714,142.406448 243.871780,139.252243 243.993942,135.076843 
	C244.120544,130.750412 242.458633,127.004196 238.056625,126.572716 
	C231.582413,125.938110 224.999847,126.409081 218.130966,126.409081 
	C218.130966,131.190765 218.130966,135.657074 218.143524,141.042160 
z"/>
<path fill="#9D9490" opacity="1.000000" stroke="none" 
	d="
M188.004349,164.864044 
	C192.332153,164.864456 196.170303,165.015274 199.990967,164.821426 
	C203.509872,164.642883 204.532043,166.057159 203.262253,170.032822 
	C197.751221,170.032822 191.990753,170.032822 186.230301,170.032822 
	C180.423615,170.032822 174.616928,170.032822 168.434662,170.032822 
	C168.434662,153.441269 168.434662,137.221741 168.434662,120.626450 
	C180.011383,120.626450 191.568634,120.626450 203.484528,120.626450 
	C203.484528,122.254730 203.484528,123.792931 203.484528,125.857330 
	C193.709763,125.857330 184.129486,125.857330 174.226715,125.857330 
	C174.226715,131.435623 174.226715,136.493271 174.226715,142.198059 
	C182.772400,142.198059 191.167038,142.198059 199.796555,142.198059 
	C199.796555,144.282547 199.796555,145.723801 199.796555,147.770233 
	C191.349625,147.770233 182.951599,147.770233 174.231339,147.770233 
	C174.231339,153.614243 174.231339,158.860565 174.231339,164.864120 
	C178.645279,164.864120 183.076172,164.864120 188.004349,164.864044 
z"/>
<path fill="#99908B" opacity="1.000000" stroke="none" 
	d="
M285.003326,154.575974 
	C282.227020,152.414490 279.720673,150.226715 276.809662,148.996140 
	C273.009308,147.389587 268.775940,146.825226 264.931213,145.301773 
	C258.650574,142.813095 256.509766,139.107986 256.849091,132.492310 
	C257.140686,126.807198 260.416321,122.599251 266.028381,120.700462 
	C273.819275,118.064484 283.703644,120.363602 289.097626,126.123749 
	C288.946106,126.534576 288.860443,127.043442 288.595215,127.428635 
	C288.035675,128.241180 287.382141,128.989014 286.866058,129.638870 
	C283.183563,128.188965 279.786224,126.392868 276.167999,125.580078 
	C273.542084,124.990196 270.161407,124.856880 267.960388,126.061050 
	C265.556488,127.376228 262.888794,130.341827 262.638275,132.820709 
	C262.417358,135.006805 264.842590,138.569595 267.028198,139.656265 
	C271.430084,141.844864 276.528046,142.581696 281.222168,144.246399 
	C288.393616,146.789627 291.379120,151.004028 291.074860,157.514816 
	C290.793152,163.543243 287.235504,168.331619 281.293762,169.957077 
	C271.310120,172.688248 262.714294,169.824478 254.755997,162.955444 
	C255.971161,161.429733 256.951355,160.199036 258.183929,158.651489 
	C263.297607,163.360062 268.927063,165.769592 275.636047,165.376297 
	C282.786865,164.957092 285.348236,162.244965 285.003326,154.575974 
z"/>
<path fill="#99908C" opacity="1.000000" stroke="none" 
	d="
M29.919434,164.505768 
	C37.861206,160.918121 38.583538,154.033371 38.750656,147.082657 
	C38.958588,138.434387 38.800537,129.777313 38.800537,120.714981 
	C40.481705,120.554497 41.878304,120.421188 43.423969,120.273643 
	C43.712353,121.182571 44.067318,121.783394 44.069458,122.385468 
	C44.103806,132.050629 44.283287,141.720642 44.043720,151.379974 
	C43.756863,162.945816 36.150124,170.523727 24.900978,170.917969 
	C12.693152,171.345779 4.045341,164.624527 3.295866,152.920486 
	C2.617601,142.328461 3.152557,131.658752 3.152557,120.842125 
	C6.955262,119.709312 9.028677,120.119980 8.902779,124.663887 
	C8.690545,132.323837 8.826799,139.993973 8.847055,147.659729 
	C8.884425,161.802307 15.386865,167.140015 29.919434,164.505768 
z"/>
<path fill="#9A918C" opacity="1.000000" stroke="none" 
	d="
M126.756264,129.191483 
	C131.200455,140.157089 135.507324,150.762787 140.260010,162.466309 
	C145.100906,150.653137 149.521210,139.870316 153.937271,129.085724 
	C154.630386,127.393059 155.441391,125.733147 155.958694,123.987206 
	C157.066406,120.248634 159.384262,119.526924 163.288956,121.015816 
	C160.610275,127.420578 158.008865,133.662659 155.389923,139.897385 
	C151.590179,148.943130 147.867554,158.023590 143.872040,166.982208 
	C143.286469,168.295166 141.449951,169.649353 140.056824,169.809982 
	C138.977356,169.934464 137.090683,168.481018 136.580002,167.292114 
	C130.214371,152.472351 124.031868,137.573914 117.818832,122.688782 
	C117.579147,122.114548 117.505508,121.471001 117.342384,120.810715 
	C121.490105,119.318848 123.878845,120.624352 124.944382,124.669884 
	C125.322258,126.104599 126.050598,127.447006 126.756264,129.191483 
z"/>
<path fill="#F7901F" opacity="1.000000" stroke="none" 
	d="
M480.435577,81.752296 
	C483.309387,63.997433 486.641357,46.327118 490.086914,28.253828 
	C494.463959,30.200348 496.534576,34.861866 495.933868,40.304867 
	C495.229889,46.683559 494.534119,53.068447 494.080231,59.468056 
	C493.566498,66.710701 493.325165,73.972672 492.944397,81.694557 
	C488.913544,82.054199 484.903656,81.945518 480.435577,81.752296 
z"/>
<path fill="#9E9590" opacity="1.000000" stroke="none" 
	d="
M299.681335,169.253967 
	C299.380676,153.911240 299.363739,138.939621 299.230682,123.969040 
	C299.193298,119.762428 301.520996,119.905594 304.764954,120.720863 
	C304.764954,136.951752 304.764954,153.162018 304.764954,169.938904 
	C303.047302,169.827759 301.484161,169.726624 299.681335,169.253967 
z"/>
<path fill="#958B86" opacity="1.000000" stroke="none" 
	d="
M106.844894,125.219948 
	C106.425964,120.999138 107.747200,119.398254 111.872452,120.884293 
	C111.872452,136.976074 111.872452,153.045471 111.872452,169.543915 
	C110.414543,169.543915 108.908623,169.543915 106.844940,169.543915 
	C106.844940,154.862732 106.844940,140.276382 106.844894,125.219948 
z"/>
<path fill="#F15A2A" opacity="1.000000" stroke="none" 
	d="
M470.484924,125.547379 
	C464.954865,120.997826 459.554260,115.994843 453.100098,110.015892 
	C459.526184,108.445366 464.583618,107.209335 470.017822,105.961288 
	C470.467865,112.330826 470.541138,118.712387 470.484924,125.547379 
z"/>
<path fill="#F79124" opacity="1.000000" stroke="none" 
	d="
M510.094849,136.453995 
	C501.239410,135.415558 492.343353,134.035660 483.448486,132.648392 
	C481.506866,132.345566 479.569366,132.016495 477.330170,131.459259 
	C481.341888,131.114670 485.764954,131.571854 489.932617,130.743683 
	C493.878448,129.959564 497.556335,127.826942 501.683350,126.176636 
	C504.694702,129.413864 507.374695,132.761871 510.094849,136.453995 
z"/>
<path fill="#FDFCFC" opacity="1.000000" stroke="none" 
	d="
M35.980885,74.688370 
	C34.659893,78.638138 34.204315,82.892609 31.885855,85.473824 
	C26.975336,90.940857 17.203869,88.325462 15.789558,80.935501 
	C14.575814,74.593529 14.866618,67.771217 15.649088,61.301243 
	C16.261190,56.239986 20.393036,53.900730 25.507793,54.025211 
	C30.454042,54.145596 33.908325,56.613873 34.873310,61.394993 
	C35.718071,65.580421 35.660946,69.947876 35.980885,74.688370 
z"/>
<path fill="#FFFEFC" opacity="1.000000" stroke="none" 
	d="
M503.678986,82.835991 
	C503.885529,83.257683 503.767578,83.568924 503.365845,83.942291 
	C503.172852,83.578117 503.263702,83.151833 503.678986,82.835991 
z"/>
<path fill="#FCFCFC" opacity="1.000000" stroke="none" 
	d="
M254.982697,73.324142 
	C252.294327,80.100334 249.202240,82.261574 243.925888,81.432114 
	C238.812424,80.628250 235.635681,77.111000 235.269501,70.892403 
	C235.069199,67.491081 235.377060,63.897621 236.301743,60.630207 
	C237.698441,55.694817 241.550003,53.564442 246.620819,54.055336 
	C251.110641,54.489979 254.415161,57.567921 254.959290,62.491596 
	C255.338364,65.921944 255.042755,69.426842 254.982697,73.324142 
z"/>
<path fill="#FDFCFC" opacity="1.000000" stroke="none" 
	d="
M187.645020,81.042130 
	C180.065414,76.597252 178.268631,62.235928 184.161575,56.410618 
	C188.515152,52.106998 196.874985,53.512932 199.375565,59.255634 
	C201.871338,64.987328 201.781601,70.930496 199.146362,76.675926 
	C196.888077,81.599503 192.552521,81.628349 187.645020,81.042130 
z"/>
<path fill="#FCFCFC" opacity="1.000000" stroke="none" 
	d="
M78.568130,87.908035 
	C73.681725,86.436562 71.102646,83.285385 70.915390,78.703033 
	C70.686493,73.102089 70.540398,67.424835 71.204254,61.881870 
	C71.808533,56.836334 75.732513,54.099712 80.675224,54.024147 
	C85.978409,53.943077 90.084885,56.611938 90.771729,61.763844 
	C91.487450,67.132416 91.735107,72.712044 91.113586,78.074944 
	C90.210632,85.866188 86.909210,88.143761 78.568130,87.908035 
z"/>
<path fill="#FBFBFB" opacity="1.000000" stroke="none" 
	d="
M218.137238,140.582764 
	C218.130966,135.657074 218.130966,131.190765 218.130966,126.409081 
	C224.999847,126.409081 231.582413,125.938110 238.056625,126.572716 
	C242.458633,127.004196 244.120544,130.750412 243.993942,135.076843 
	C243.871780,139.252243 241.909714,142.406448 237.764008,142.899567 
	C232.022766,143.582458 226.187653,143.573730 220.392258,143.583649 
	C219.644135,143.584930 218.893173,141.929916 218.137238,140.582764 
z"/>
</svg>