<svg width="56" height="248" viewBox="0 0 56 248" fill="none" xmlns="http://www.w3.org/2000/svg">
<path d="M19.8401 21.49L27.1301 34.45C27.5101 35.13 28.4901 35.13 28.8701 34.45L36.1601 21.49C36.5401 20.82 36.0501 20 35.2901 20H20.7101C19.9501 20 19.4601 20.82 19.8401 21.49ZM22.3801 22H33.6301L28.0001 32L22.3801 22Z" fill="black"/>
<path d="M19 68L28 84L37 68H19ZM22.38 70H33.63L28 80L22.38 70Z" fill="black"/>
<path d="M19 116L28 132L37 116H19ZM22.38 118H33.63L28 128L22.38 118Z" fill="black"/>
<path d="M19 164L28 180L37 164H19ZM22.38 166H33.63L28 176L22.38 166Z" fill="black"/>
<path opacity="0.3" d="M22.3799 214L27.9999 224L33.6299 214H22.3799Z" fill="black"/>
<path d="M19 212L28 228L37 212H19ZM22.38 214H33.63L28 224L22.38 214Z" fill="black"/>
<rect x="0.5" y="0.5" width="55" height="247" rx="4.5" stroke="#7B61FF" stroke-dasharray="10 5"/>
</svg>
